<?xml version="1.0" encoding="utf-8"?>
<!-- Generator: Adobe Illustrator 21.1.0, SVG Export Plug-In . SVG Version: 6.00 Build 0)  -->
<svg version="1.1" id="Calque_1" xmlns="http://www.w3.org/2000/svg" xmlns:xlink="http://www.w3.org/1999/xlink" x="0px" y="0px"
	 viewBox="0 0 238.4 26.5" style="enable-background:new 0 0 238.4 26.5;" xml:space="preserve">
<style type="text/css">
	.st0{fill:#D4ADCF;}
	.st1{fill:#4ABACD;}
	.st2{opacity:0.6;fill:#4ABACD;}
	.st3{opacity:0.7;fill:#4ABACD;}
	.st4{opacity:0.5;fill:#4ABACD;}
	.st5{opacity:0.4;fill:#4ABACD;}
	.st6{opacity:0.8;fill:#4ABACD;}
	.st7{opacity:0.9;fill:#4ABACD;}
	.st8{opacity:0.6;fill:#B0CE26;}
	.st9{opacity:0.7;fill:#B0CE26;}
	.st10{opacity:0.5;fill:#B0CE26;}
	.st11{opacity:0.4;fill:#B0CE26;}
	.st12{opacity:0.8;fill:#B0CE26;}
	.st13{opacity:0.9;fill:#B0CE26;}
	.st14{fill:#B0CE26;}
</style>
<path class="st0" d="M92.8,7.2C92.8,6.5,93.3,6,94,6c0.6,0,1.2,0.5,1.2,1.2c0,0.7-0.6,1.2-1.2,1.2C93.3,8.4,92.8,7.9,92.8,7.2z"/>
<g>
	<path class="st1" d="M30.1,17.9l1.4-0.8c0.8,1.3,1.9,2.5,4.1,2.5c1.9,0,3.3-1,3.3-2.7c0-1.6-1-2.5-3-3.4L34.7,13
		c-2.3-1-3.6-2.2-3.6-4.4c0-2.3,1.8-3.9,4.2-3.9c2.2,0,3.5,1,4.4,2.4L38.3,8c-0.6-1-1.5-1.8-3-1.8c-1.6,0-2.6,0.9-2.6,2.3
		c0,1.4,0.8,2.1,2.6,2.9l1.3,0.6c2.7,1.2,4,2.5,4,4.9c0,2.7-2.1,4.3-5,4.3C32.6,21.2,30.9,19.6,30.1,17.9z"/>
	<path class="st1" d="M43.2,13c0-4.9,3.7-8.2,8.3-8.2c4.6,0,8.3,3.4,8.3,8.2s-3.7,8.2-8.3,8.2C46.9,21.2,43.2,17.8,43.2,13z M58,13
		c0-3.8-2.7-6.7-6.5-6.7C47.8,6.3,45,9.1,45,13s2.7,6.7,6.5,6.7C55.3,19.7,58,16.8,58,13z"/>
	<path class="st1" d="M63.3,4.9h3.6c4.4,0,6.7,2.4,6.7,6.1c0,3.6-2.2,6-6.7,6H65v4h-1.7V4.9z M66.8,15.5c3.6,0,5-1.9,5-4.5
		c0-2.7-1.3-4.5-5-4.5H65v9.1H66.8z"/>
	<path class="st1" d="M77.1,4.9h1.7V14h8.6V4.9h1.7V21h-1.7v-5.5h-8.6V21h-1.7V4.9z"/>
	<path class="st1" d="M93.1,11.2h1.7V21h-1.7V11.2z"/>
	<path class="st1" d="M104.1,4.7h0.3l6.8,16.3h-1.8l-1.1-2.7h-8.1L99.1,21h-1.7L104.1,4.7z M107.7,16.8l-2.8-7.2
		c-0.3-0.8-0.6-1.9-0.6-1.9s-0.3,1.2-0.6,1.9l-2.8,7.2H107.7z"/>
	<path class="st1" d="M22.5,5.7L13,0.3c-0.7-0.4-1.5-0.4-2.2,0L1.1,5.7C0.4,6.1,0,6.9,0,7.7v11.4c0,0.8,0.5,1.6,1.2,2l9.6,5.2
		c0.3,0.2,0.7,0.3,1.1,0.3c0.4,0,0.7-0.1,1.1-0.3l9.6-5.2c0.7-0.4,1.2-1.2,1.2-2V7.7C23.7,6.9,23.3,6.1,22.5,5.7z M22.6,19.1
		c0,0.4-0.2,0.8-0.6,1l-9.6,5.2c-0.3,0.2-0.8,0.2-1.1,0l-9.6-5.2c-0.4-0.2-0.6-0.6-0.6-1V7.7c0-0.4,0.2-0.8,0.6-1l9.6-5.5
		c0.2-0.1,0.4-0.2,0.6-0.2c0.2,0,0.4,0.1,0.6,0.2L22,6.7c0.4,0.2,0.6,0.6,0.6,1V19.1z"/>
	<path class="st2" d="M12.4,15.6c0,0-0.1-0.1-0.1-0.1c-0.2-0.1-0.4-0.2-0.6-0.2c-0.6,0-1.1,0.5-1.1,1.1c0,0.1,0,0.2,0.1,0.3
		c0.1,0.2,0.2,0.3,0.3,0.5c0.2,0.2,0.4,0.3,0.7,0.3h0c0.6,0,1.1-0.5,1.1-1.1C12.7,16,12.6,15.8,12.4,15.6z"/>
	<path class="st3" d="M13.4,13.2c-0.6,0-1.2,0.5-1.2,1.2c0,0.3,0.1,0.6,0.4,0.9c0,0,0.1,0,0.1,0.1c0.2,0.1,0.4,0.2,0.7,0.2
		c0.6,0,1.2-0.5,1.2-1.2C14.6,13.8,14.1,13.3,13.4,13.2z"/>
	<ellipse transform="matrix(5.777278e-03 -1 1 5.777278e-03 -10.3481 24.4397)" class="st4" cx="7.1" cy="17.4" rx="1" ry="1"/>
	<ellipse transform="matrix(5.748931e-03 -1 1 5.748931e-03 -12.4885 22.0427)" class="st5" cx="4.8" cy="17.3" rx="1" ry="1"/>
	<path class="st6" d="M12.5,11.7c0,0.7,0.5,1.2,1.2,1.2c0.7,0,1.2-0.5,1.2-1.2c0-0.7-0.5-1.2-1.2-1.2h0C13,10.5,12.5,11,12.5,11.7z"
		/>
	<path class="st7" d="M13.2,7.6L13.2,7.6c-0.7,0-1.3,0.6-1.3,1.3c0,0.2,0,0.4,0.1,0.5c0.1,0.1,0.1,0.2,0.2,0.3
		c0.2,0.3,0.6,0.4,1,0.4h0c0.7,0,1.3-0.6,1.3-1.3C14.4,8.2,13.9,7.7,13.2,7.6z"/>
	
		<ellipse transform="matrix(5.025449e-02 -0.9987 0.9987 5.025449e-02 6.0379 17.9891)" class="st1" cx="12.5" cy="5.8" rx="1.4" ry="1.4"/>
</g>
<g>
	<g>
		<path class="st8" d="M12.1,10.2c-0.1-0.2-0.1-0.3-0.3-0.4c-0.2-0.2-0.5-0.3-0.8-0.3c-0.6,0-1.1,0.5-1.1,1.1c0,0.3,0.1,0.6,0.3,0.8
			c0,0,0.1,0.1,0.1,0.1c0.2,0.1,0.4,0.2,0.6,0.2c0.6,0,1.1-0.5,1.1-1.1C12.2,10.4,12.2,10.3,12.1,10.2z"/>
		<path class="st9" d="M10.1,11.6C10,11.6,10,11.6,10.1,11.6c-0.3-0.2-0.5-0.3-0.8-0.3c-0.6,0-1.2,0.5-1.2,1.2v0
			c0,0.6,0.5,1.2,1.2,1.2c0.6,0,1.2-0.5,1.2-1.2v0C10.5,12.2,10.3,11.9,10.1,11.6z"/>
		<circle class="st10" cx="15.6" cy="9.5" r="1"/>
		<path class="st11" d="M17.9,8.5L17.9,8.5c-0.5,0-1,0.4-1,1c0,0.5,0.4,1,0.9,1h0c0.5,0,0.9-0.4,0.9-1C18.9,8.9,18.4,8.5,17.9,8.5z"
			/>
		<path class="st12" d="M9,16.4L9,16.4c0.7,0,1.2-0.5,1.2-1.2c0-0.7-0.5-1.2-1.2-1.2c-0.7,0-1.2,0.5-1.2,1.2v0
			C7.8,15.9,8.3,16.4,9,16.4z"/>
		<path class="st13" d="M10.8,17.4c-0.1-0.1-0.1-0.3-0.2-0.4c-0.2-0.2-0.6-0.4-0.9-0.4c-0.7,0-1.3,0.6-1.3,1.3
			c0,0.7,0.6,1.3,1.3,1.3c0.7,0,1.3-0.6,1.3-1.3C10.9,17.8,10.9,17.6,10.8,17.4z"/>
		<circle class="st14" cx="10.3" cy="20.9" r="1.4"/>
	</g>
	<g>
		<path class="st14" d="M127.2,14.8h5.1v3.5c-1.3,1.2-3.1,1.8-5.3,1.8c-4,0-7-3-7-7.1c0-4,3-7.1,7-7.1c2,0,3.6,0.6,4.7,1.7l0.1,0.1
			l0.8-0.8l-0.1-0.1c-1.2-1.3-3.2-2-5.5-2c-4.7,0-8.2,3.5-8.2,8.2s3.5,8.2,8.2,8.2c3.3,0,5.3-1.3,6.4-2.4l0,0v-5h-6.2V14.8z"/>
		<polygon class="st14" points="139.4,15.3 146.8,15.3 146.8,14.2 139.4,14.2 139.4,6 147.7,6 147.7,5 138.3,5 138.3,20.9 148,20.9 
			148,19.9 139.4,19.9 		"/>
		<path class="st14" d="M163.7,17.8c0,0.2,0,0.5,0,0.7c-0.1-0.2-0.3-0.5-0.5-0.7L153.2,4.8l0,0h-0.5v16.2h1.1V8.1c0-0.2,0-0.5,0-0.7
			c0.1,0.2,0.3,0.5,0.5,0.7l10.1,13.1h0.5V5h-1.1V17.8z"/>
		<polygon class="st14" points="171.7,15.3 179,15.3 179,14.2 171.7,14.2 171.7,6 179.9,6 179.9,5 170.5,5 170.5,20.9 180.2,20.9 
			180.2,19.9 171.7,19.9 		"/>
		<polygon class="st14" points="183.3,6 188.3,6 188.3,20.9 189.5,20.9 189.5,6 194.5,6 194.5,5 183.3,5 		"/>
		<rect x="198.6" y="5" class="st14" width="1.2" height="16"/>
		<path class="st14" d="M218.3,17.3c-1.2,1.8-3.2,2.8-5.6,2.8c-4,0-7-3-7-7.1c0-4,3-7.1,7-7.1c2.4,0,4.2,0.9,5.4,2.6l0.1,0.1
			l0.9-0.7l-0.1-0.1c-1.3-2-3.6-3-6.3-3c-4.7,0-8.2,3.5-8.2,8.2s3.5,8.2,8.2,8.2c2.7,0,5.1-1.2,6.5-3.2l0.1-0.1L218.3,17.3
			L218.3,17.3z"/>
		<path class="st14" d="M228.8,12.2l-1.5-0.7c-2-0.9-2.7-1.7-2.7-3.1c0-1.6,1.1-2.5,2.8-2.5c1.8,0,2.6,1,3.2,1.9l0.1,0.1l0.9-0.6
			l-0.1-0.1c-1-1.6-2.3-2.3-4.1-2.3c-2.3,0-4,1.5-4,3.6c0,2.2,1.3,3.2,3.4,4.2l1.5,0.7c2.3,1.1,3.1,2.1,3.1,3.7
			c0,1.8-1.5,3.1-3.6,3.1c-2.6,0-3.7-1.4-4.3-2.6l-0.1-0.1l-1,0.5l0.1,0.1c0.7,1.5,2.2,3.2,5.4,3.2c2.9,0,4.8-1.7,4.8-4.1
			C232.7,14.8,231.5,13.4,228.8,12.2z"/>
		<path class="st14" d="M237,6.9c0-0.4-0.3-0.7-0.8-0.7h-0.8v2h0.6V7.6h0.2l0.2,0.5h0.6l-0.3-0.6C236.9,7.4,237,7.1,237,6.9z
			 M236.2,7.2h-0.3V6.7h0.3c0.1,0,0.2,0.1,0.2,0.2C236.4,7.1,236.2,7.2,236.2,7.2z"/>
		<path class="st14" d="M236.1,4.9c-1.3,0-2.3,0.9-2.3,2.3c0,1.3,1,2.3,2.3,2.3c1.3,0,2.3-0.9,2.3-2.3
			C238.4,5.8,237.3,4.9,236.1,4.9z M236.1,8.7c-0.9,0-1.5-0.6-1.5-1.5c0-1,0.6-1.5,1.5-1.5c0.9,0,1.5,0.6,1.5,1.5
			C237.6,8.1,236.9,8.7,236.1,8.7z"/>
	</g>
</g>
</svg>
